{"title":"Manatlya Manat [2010] Marathi Xvid 1 CD VCDRip@Mastitorrents","uid":5851652,"size":731221314,"categoryP":"video","categoryS":"movies","magnet":"?xt=urn:btih:887d762b997365f901052e7173582b6eebe023f3&amp;dn=Manatlya+Manat+%5B2010%5D+Marathi+Xvid+1+CD+VCDRip%40Mastitorrents&amp;tr=udp%3A%2F%2Ftracker.openbittorrent.com%3A80&amp;tr=udp%3A%2F%2Fopen.demonii.com%3A1337&amp;tr=udp%3A%2F%2Ftracker.coppersurfer.tk%3A6969&amp;tr=udp%3A%2F%2Fexodus.desync.com%3A6969","seeders":0,"leechers":0,"uploader":"amanrulz","files":1,"time":1285408644,"description":"mastitorrents.com\n &lt;a href=&quot;\nhttp://mastitorrents.com/forums/index.php&quot; rel=&quot;nofollow&quot; target=&quot;_NEW&quot;&gt;\nhttp://mastitorrents.com/forums/index.php&lt;/a&gt;\n\nInfo -\nCast -\nGirish Oak\nHemangi Kavi\nRajan Tamahne\nAnand Abhayankar.\n\nMedia Info -\nGeneral\nName : Manatlya Manat\nFormat : AVI\nFormat/Info : Audio Video Interleave\nFormat profile : OpenDML\nFile size : 697 MiB\nDuration : 1h 29mn\nOverall bit rate : 1 094 Kbps\nWriting application : AVI-Mux GUI 1.17.8.3\n\n\nVideo\nID : 0\nFormat : MPEG-4 Visual\nFormat profile : Advanced Simple@L5\nFormat settings, BVOP : Yes\nFormat settings, QPel : No\nFormat settings, GMC : No warppoints\nFormat settings, Matrix : Default (H.263)\nCodec ID : XVID\nCodec ID/Hint : XviD\nDuration : 1h 29mn\nBit rate : 1 027 Kbps\nWidth : 640 pixels\nHeight : 336 pixels\nDisplay aspect ratio : 1.905\nFrame rate : 25.000 fps\nColor space : YUV\nChroma subsampling : 4:2:0\nBit depth : 8 bits\nScan type : Progressive\nBits/(Pixel*Frame) : 0.191\nStream size : 654 MiB (94%)\nWriting library : XviD 1.2.1\n\n\nAudio\nID : 1\nFormat : MPEG Audio\nFormat version : Version 2\nFormat profile : Layer 3\nMode : Joint stereo\nMode extension : MS Stereo\nCodec ID : 55\nCodec ID/Hint : MP3\nDuration : 1h 29mn\nBit rate mode : Constant\nBit rate : 64.0 Kbps\nChannel(s) : 2 channels\nSampling rate : 24.0 KHz\nStream size : 40.8 MiB (6%)\nAlignment : Aligned on interleaves\nInterleave, duration : 779 ms (19.48 video frames)\nInterleave, preload duration : 216 ms\nTitle : Manatlya Manat Final Tc0 L2 2ch 44.1 224 DELAY 0ms\nWriting library : LAME3.98r","torrent":{"xt":"urn:btih:887d762b997365f901052e7173582b6eebe023f3","amp;dn":"Manatlya+Manat+%5B2010%5D+Marathi+Xvid+1+CD+VCDRip%40Mastitorrents","amp;tr":["udp%3A%2F%2Ftracker.openbittorrent.com%3A80","udp%3A%2F%2Fopen.demonii.com%3A1337","udp%3A%2F%2Ftracker.coppersurfer.tk%3A6969","udp%3A%2F%2Fexodus.desync.com%3A6969"],"infoHash":"887d762b997365f901052e7173582b6eebe023f3","infoHashBuffer":{"type":"Buffer","data":[136,125,118,43,153,115,101,249,1,5,46,113,115,88,43,110,235,224,35,243]},"announce":[],"urlList":[]}}